<svg width="208" height="80" viewBox="0 0 208 80" fill="none" xmlns="http://www.w3.org/2000/svg">
<path d="M125.987 11.625C138.573 11.625 148.779 21.848 148.779 34.46C148.779 45.7433 140.609 55.1136 129.875 56.9619L129.169 57.083L129.527 57.7041L142.087 79.5H125.773L113.122 57.5449L112.978 57.2939H83.6357V79.4658H68.3828V55.8613C68.383 48.2325 74.5945 42.0107 82.207 42.0107H127.354C131.517 42.0107 134.891 38.6291 134.892 34.46C134.892 30.2904 131.517 26.9082 127.354 26.9082H84.6357V11.625H125.987ZM14.3242 42.0107H51.1289V57.2939H15.7529V79.4658H0.5V55.8613C0.500188 48.2329 6.71202 42.0108 14.3242 42.0107ZM173.604 0.5C192.324 0.500017 207.5 15.7039 207.5 34.46C207.5 53.2159 192.324 68.4189 173.604 68.4189C166.133 68.4189 159.227 65.9967 153.624 61.8936C156.813 58.6687 159.443 54.89 161.359 50.7119C164.765 53.2913 169.006 54.8232 173.604 54.8232C184.831 54.8232 193.93 45.7052 193.931 34.46C193.931 23.2144 184.831 14.0957 173.604 14.0957C169.007 14.0957 164.765 15.6271 161.359 18.2061C159.443 14.0283 156.813 10.2492 153.623 7.02441C159.226 2.92126 166.133 0.5 173.604 0.5ZM67.3828 11.625V26.9082H0.5V11.625H67.3828Z" fill="white" stroke="black"/>
</svg>
