<svg width="24" height="24" viewBox="0 0 24 24" fill="none" xmlns="http://www.w3.org/2000/svg">
<g clip-path="url(#clip0_251_956)">
<path d="M22.2556 0.00103736H1.80451C1.57043 -0.00703865 1.33711 0.0321066 1.11849 0.116138C0.899859 0.20017 0.700395 0.327367 0.531991 0.490143C0.363588 0.65292 0.229693 0.847941 0.138293 1.06358C0.0468937 1.27921 -0.000138987 1.51104 3.08507e-07 1.74525V22.2548C-0.000138987 22.489 0.0468937 22.7208 0.138293 22.9364C0.229693 23.1521 0.363588 23.3471 0.531991 23.5099C0.700395 23.6726 0.899859 23.7998 1.11849 23.8839C1.33711 23.9679 1.57043 24.007 1.80451 23.999H22.2556C22.7183 23.999 23.162 23.8152 23.4891 23.4881C23.8162 23.161 24 22.7173 24 22.2548V1.74525C24 1.28265 23.8162 0.839008 23.4891 0.511905C23.162 0.184802 22.7183 0.00103736 22.2556 0.00103736ZM7.15789 20.4504H3.54887V9.02281H7.15789V20.4504ZM5.35338 7.45904C4.80552 7.44338 4.28537 7.2147 3.90347 6.82161C3.52158 6.42851 3.30805 5.90199 3.30827 5.35396C3.30827 4.81161 3.52374 4.29147 3.90727 3.90797C4.2908 3.52447 4.81099 3.30902 5.35338 3.30902C5.89578 3.30902 6.41596 3.52447 6.7995 3.90797C7.18303 4.29147 7.3985 4.81161 7.3985 5.35396C7.39872 5.90199 7.18519 6.42851 6.8033 6.82161C6.4214 7.2147 5.90124 7.44338 5.35338 7.45904ZM20.4511 20.4504H16.9023V14.8569C16.9023 13.5337 16.9023 11.8496 15.0376 11.8496C13.1729 11.8496 12.9323 13.2931 12.9323 14.7968V20.4504H9.38346V9.02281H12.7519V10.5866H12.812C13.1508 9.99884 13.6435 9.51463 14.237 9.18608C14.8306 8.85754 15.5025 8.69712 16.1805 8.72209C19.7895 8.72209 20.4511 11.0678 20.4511 14.1953V20.4504Z" fill="white"/>
</g>
<defs>
<clipPath id="clip0_251_956">
<rect width="24" height="24" fill="white"/>
</clipPath>
</defs>
</svg>
