<svg width="399" height="817" viewBox="0 0 399 817" fill="none" xmlns="http://www.w3.org/2000/svg">
<rect width="399" height="817" fill="#F9FAFB"/>
<rect width="399" height="817" fill="url(#paint0_linear_1_640)"/>
<path fill-rule="evenodd" clip-rule="evenodd" d="M289.431 394.46C289.431 405.43 280.554 414.323 269.604 414.323C264.894 414.323 260.568 412.677 257.167 409.928C255.178 414.46 252.343 418.534 248.863 421.95C254.629 426.324 261.814 428.919 269.604 428.919C288.601 428.919 304 413.491 304 394.46C304 375.428 288.601 360 269.604 360C261.814 360 254.629 362.595 248.863 366.969C252.344 370.385 255.178 374.459 257.167 378.991C260.568 376.242 264.894 374.596 269.604 374.596C280.554 374.596 289.431 383.489 289.431 394.46Z" fill="white"/>
<path fill-rule="evenodd" clip-rule="evenodd" d="M163.883 371.125H96V387.408H163.883V371.125ZM96 415.862V439.966H112.253V417.794H147.629V401.511H110.324C102.435 401.511 96 407.958 96 415.862ZM163.883 439.966H180.136V417.794H208.688L221.485 440H238.953L225.96 417.455C236.931 415.566 245.279 405.99 245.279 394.46C245.279 381.572 234.85 371.125 221.988 371.125H180.136V387.408H223.353C227.24 387.408 230.391 390.565 230.391 394.46C230.391 398.354 227.24 401.511 223.353 401.511H178.207C170.317 401.511 163.883 407.957 163.883 415.862V439.966Z" fill="white"/>
<path d="M165.133 790V779.2H167.387V788.027H172.947V790H165.133ZM178.731 790.16C177.86 790.16 177.1 789.991 176.451 789.653C175.811 789.307 175.313 788.822 174.958 788.2C174.602 787.578 174.424 786.84 174.424 785.987C174.424 785.142 174.598 784.409 174.944 783.787C175.3 783.164 175.802 782.684 176.451 782.347C177.1 782.009 177.864 781.84 178.744 781.84C179.615 781.84 180.371 782.009 181.011 782.347C181.651 782.684 182.144 783.164 182.491 783.787C182.838 784.409 183.011 785.147 183.011 786C183.011 786.844 182.838 787.582 182.491 788.213C182.144 788.836 181.647 789.316 180.998 789.653C180.358 789.991 179.602 790.16 178.731 790.16ZM178.731 788.24C179.398 788.24 179.909 788.04 180.264 787.64C180.62 787.231 180.798 786.68 180.798 785.987C180.798 785.293 180.62 784.751 180.264 784.36C179.909 783.96 179.398 783.76 178.731 783.76C178.055 783.76 177.535 783.96 177.171 784.36C176.815 784.751 176.638 785.293 176.638 785.987C176.638 786.68 176.815 787.231 177.171 787.64C177.535 788.04 178.055 788.24 178.731 788.24ZM187.92 790.147C186.978 790.147 186.24 789.92 185.706 789.467C185.173 789.004 184.906 788.4 184.906 787.653C184.906 786.862 185.182 786.253 185.733 785.827C186.284 785.4 187.075 785.187 188.106 785.187H190.4V784.88C190.4 784.018 189.884 783.587 188.853 783.587C187.955 783.587 187.413 783.898 187.226 784.52H185.026C185.204 783.64 185.618 782.973 186.266 782.52C186.915 782.067 187.778 781.84 188.853 781.84C190.044 781.84 190.951 782.107 191.573 782.64C192.204 783.173 192.52 783.951 192.52 784.973V787.813H193.56V790H191.32V788.693H190.76C190.484 789.156 190.115 789.516 189.653 789.773C189.191 790.022 188.613 790.147 187.92 790.147ZM188.253 788.467C188.671 788.467 189.04 788.391 189.36 788.24C189.68 788.089 189.933 787.889 190.12 787.64C190.306 787.382 190.4 787.093 190.4 786.773V786.653H188.213C187.413 786.653 187.013 786.951 187.013 787.547C187.013 787.84 187.124 788.067 187.346 788.227C187.569 788.387 187.871 788.467 188.253 788.467ZM199.189 790.16C198.371 790.16 197.673 789.987 197.095 789.64C196.526 789.293 196.095 788.809 195.802 788.187C195.509 787.556 195.362 786.827 195.362 786C195.362 785.164 195.504 784.436 195.789 783.813C196.073 783.182 196.486 782.698 197.029 782.36C197.58 782.013 198.237 781.84 199.002 781.84C199.589 781.84 200.091 781.951 200.509 782.173C200.935 782.387 201.264 782.693 201.495 783.093H201.549V778.8H203.762V787.813H204.855V790H202.615V788.693H202.055C201.771 789.156 201.389 789.516 200.909 789.773C200.437 790.031 199.864 790.16 199.189 790.16ZM199.602 788.24C200.197 788.24 200.669 788.076 201.015 787.747C201.371 787.409 201.549 786.947 201.549 786.36V785.64C201.549 785.053 201.371 784.596 201.015 784.267C200.669 783.929 200.197 783.76 199.602 783.76C198.926 783.76 198.42 783.96 198.082 784.36C197.744 784.76 197.575 785.307 197.575 786C197.575 786.693 197.744 787.24 198.082 787.64C198.42 788.04 198.926 788.24 199.602 788.24ZM207.139 790V782H209.352V790H207.139ZM208.245 781.213C207.908 781.213 207.619 781.098 207.379 780.867C207.148 780.627 207.032 780.338 207.032 780C207.032 779.662 207.148 779.378 207.379 779.147C207.619 778.907 207.908 778.787 208.245 778.787C208.583 778.787 208.868 778.907 209.099 779.147C209.339 779.378 209.459 779.662 209.459 780C209.459 780.338 209.339 780.627 209.099 780.867C208.868 781.098 208.583 781.213 208.245 781.213ZM212.719 790V784.187H211.626V782H213.866V783.307H214.426C214.737 782.844 215.128 782.489 215.599 782.24C216.07 781.982 216.657 781.853 217.359 781.853C218.47 781.853 219.328 782.16 219.932 782.773C220.546 783.378 220.852 784.191 220.852 785.213V790H218.639V785.627C218.639 785.04 218.479 784.596 218.159 784.293C217.848 783.982 217.39 783.827 216.786 783.827C216.181 783.827 215.719 783.982 215.399 784.293C215.088 784.596 214.932 785.04 214.932 785.627V790H212.719ZM227.392 793.36C226.192 793.36 225.214 793.116 224.459 792.627C223.712 792.147 223.267 791.476 223.125 790.613H225.472C225.685 791.271 226.303 791.6 227.325 791.6C228.019 791.6 228.547 791.44 228.912 791.12C229.285 790.809 229.472 790.356 229.472 789.76V788.693H229.405C229.165 789.12 228.832 789.444 228.405 789.667C227.987 789.889 227.485 790 226.899 790C226.143 790 225.485 789.836 224.925 789.507C224.374 789.169 223.943 788.693 223.632 788.08C223.33 787.467 223.179 786.747 223.179 785.92C223.179 784.676 223.521 783.684 224.205 782.947C224.899 782.209 225.845 781.84 227.045 781.84C227.721 781.84 228.294 781.969 228.765 782.227C229.245 782.484 229.627 782.844 229.912 783.307H230.472V782H232.712V784.187H231.619V789.787C231.619 790.924 231.254 791.804 230.525 792.427C229.796 793.049 228.752 793.36 227.392 793.36ZM227.445 788.08C228.059 788.08 228.539 787.911 228.885 787.573C229.232 787.236 229.405 786.773 229.405 786.187V785.627C229.405 785.049 229.227 784.596 228.872 784.267C228.525 783.929 228.05 783.76 227.445 783.76C226.796 783.76 226.29 783.951 225.925 784.333C225.57 784.716 225.392 785.249 225.392 785.933C225.392 786.618 225.57 787.147 225.925 787.52C226.29 787.893 226.796 788.08 227.445 788.08Z" fill="white"/>
<defs>
<linearGradient id="paint0_linear_1_640" x1="418" y1="-20.4334" x2="45.385" y2="824.997" gradientUnits="userSpaceOnUse">
<stop stop-color="#7419EB"/>
<stop offset="0.466346" stop-color="#3686FF"/>
<stop offset="0.754808" stop-color="#00C4DA"/>
<stop offset="1" stop-color="#00E3B5"/>
</linearGradient>
</defs>
</svg>
